<svg width="83" height="28" viewBox="0 0 83 28" fill="none" xmlns="http://www.w3.org/2000/svg"><path d="M82.01 28H0V0h82.01v28ZM79.078 2.932H2.932v22.136h76.146V2.932ZM8.462 17.578l1.724-1.744c.732.814 1.624 1.328 2.755 1.328 1.13 0 1.544-.376 1.544-.99 0-.515-.31-.778-1.05-.873l-1.129-.139c-2.35-.298-3.508-1.328-3.508-3.212 0-1.992 1.565-3.392 4.043-3.392 2.178 0 3.19.594 4.24 1.625L15.4 11.91c-.653-.653-1.526-1.07-2.397-1.07-.991 0-1.388.356-1.388.873 0 .554.238.85 1.09.97l1.167.156c2.26.297 3.423 1.327 3.423 3.131 0 2-1.783 3.468-4.459 3.468-1.997.007-3.305-.67-4.374-1.86Zm14.325 1.625c-2.022 0-3.09-1.05-3.09-3.031v-5.095H18.23V8.798h.734c.792 0 1.03-.396 1.03-1.109V5.978h2.635v2.82h2.06v2.28h-2.06v5.845h1.902v2.279l-1.744.001Zm3.944 0V8.798h2.932v2.259h.1c.237-1.15 1.03-2.259 2.655-2.259h.515v2.735H32.2c-1.711 0-2.537.376-2.537 1.585v6.084l-2.932.001Zm7.252-5.21c0-3.292 1.743-5.437 4.875-5.437 3.447 0 4.834 2.488 4.834 5.31v.873h-6.67v.155c0 1.368.734 2.239 2.3 2.239 1.228 0 1.902-.574 2.555-1.245l1.467 1.824c-.933 1.068-2.458 1.723-4.356 1.723-3.202.01-5.005-2.115-5.005-5.444v.001Zm3.04-1.132v.156h3.645v-.176c0-1.268-.574-2.12-1.743-2.12-1.17 0-1.903.852-1.903 2.14Zm15.138 4.597h-.1c-.297 1.13-1.446 1.982-2.8 1.982-2.635 0-4.002-1.923-4.002-5.445 0-3.521 1.366-5.44 4-5.44 1.348 0 2.497.833 2.8 1.982h.1V8.798h2.933v10.404h-2.939l.008-1.744Zm0-1.923v-3.07c0-.952-.812-1.526-1.923-1.526-1.11 0-1.929.852-1.929 2.159v1.804c0 1.307.812 2.16 1.921 2.16 1.11 0 1.923-.573 1.923-1.527h.008Zm5.667 3.667V8.798h2.932v1.764h.12c.376-1.11 1.244-2.002 2.8-2.002 1.426 0 2.456.734 2.912 2.102h.06c.363-1.173 1.572-2.106 3.157-2.106 2 0 3.11 1.505 3.11 4.122v6.52h-2.933V12.92c0-1.347-.454-1.981-1.426-1.981-.872 0-1.724.494-1.724 1.526v6.737h-2.932V12.92c0-1.347-.476-1.981-1.428-1.981-.851 0-1.724.494-1.724 1.526v6.737h-2.924Z" fill="#BD0042"/></svg>